<?xml version="1.0" encoding="UTF-8"?>
<!DOCTYPE svg PUBLIC "-//W3C//DTD SVG 1.1//EN" "http://www.w3.org/Graphics/SVG/1.1/DTD/svg11.dtd">
<!-- Creator: CorelDRAW X8 -->
<svg xmlns="http://www.w3.org/2000/svg" xml:space="preserve" width="100%" height="100%" version="1.1" style="shape-rendering:geometricPrecision; text-rendering:geometricPrecision; image-rendering:optimizeQuality; fill-rule:evenodd; clip-rule:evenodd"
viewBox="0 0 34620 2232"
 xmlns:xlink="http://www.w3.org/1999/xlink">
 <defs>
  <style type="text/css">
   <![CDATA[
    .fil0 {fill:#87B606}
   ]]>
  </style>
 </defs>
 <g id="Layer_x0020_1">
  <metadata id="CorelCorpID_0Corel-Layer"/>
  <path class="fil0" d="M0 2232c314,-62 663,-168 978,-249 2288,-590 4651,-1209 6997,-1542 1508,-214 3050,-280 4607,-290 5199,-32 8256,937 13196,1450 752,79 1533,119 2297,149 1877,73 2728,123 4616,-154 343,-50 701,-107 1016,-201 204,-61 626,-219 811,-260 15,-3 49,-9 58,-13 39,-17 26,-3 44,-37l-1 -1085 -34619 0 0 2232z"/>
 </g>
</svg>
